<?xml version="1.0" encoding="UTF-8" standalone="no"?>
<svg
   xmlns:dc="http://purl.org/dc/elements/1.1/"
   xmlns:cc="http://creativecommons.org/ns#"
   xmlns:rdf="http://www.w3.org/1999/02/22-rdf-syntax-ns#"
   xmlns:svg="http://www.w3.org/2000/svg"
   xmlns="http://www.w3.org/2000/svg"
   xmlns:xlink="http://www.w3.org/1999/xlink"
   xmlns:sodipodi="http://sodipodi.sourceforge.net/DTD/sodipodi-0.dtd"
   xmlns:inkscape="http://www.inkscape.org/namespaces/inkscape"
   version="1.0"
   width="100%"
   height="100%"
   viewBox="0 0 44.911778 23.39228"
   id="_brush02"
   inkscape:version="0.48.5 r10040"
   sodipodi:docname="brush.svg">
  <metadata
     id="metadata46">
    <rdf:RDF>
      <cc:Work
         rdf:about="">
        <dc:format>image/svg+xml</dc:format>
        <dc:type
           rdf:resource="http://purl.org/dc/dcmitype/StillImage" />
      </cc:Work>
    </rdf:RDF>
  </metadata>
  <sodipodi:namedview
     pagecolor="#ffffff"
     bordercolor="#666666"
     borderopacity="1"
     objecttolerance="10"
     gridtolerance="10"
     guidetolerance="10"
     inkscape:pageopacity="0"
     inkscape:pageshadow="2"
     inkscape:window-width="1920"
     inkscape:window-height="1134"
     id="namedview44"
     showgrid="false"
     inkscape:zoom="6.9532167"
     inkscape:cx="47.404675"
     inkscape:cy="12.480876"
     inkscape:window-x="0"
     inkscape:window-y="27"
     inkscape:window-maximized="1"
     inkscape:current-layer="_brush02"
     inkscape:snap-page="false"
     fit-margin-top="0"
     fit-margin-left="0"
     fit-margin-right="0"
     fit-margin-bottom="0" />
  <defs
     id="defs2385">
    <linearGradient
       id="linearGradient3818">
      <stop
         style="stop-color:#ff0000;stop-opacity:1;"
         offset="0"
         id="stop3820" />
      <stop
         id="stop3826"
         offset="0.5"
         style="stop-color:#ffff00;stop-opacity:1;" />
      <stop
         style="stop-color:#00ff00;stop-opacity:1;"
         offset="0.75"
         id="stop3828" />
      <stop
         style="stop-color:#0000ff;stop-opacity:1;"
         offset="1"
         id="stop3822" />
    </linearGradient>
    <linearGradient
       id="linearGradient3922">
      <stop
         style="stop-color:#00ffff;stop-opacity:1;"
         offset="0"
         id="stop3924" />
      <stop
         id="stop3936"
         offset="0.37713411"
         style="stop-color:#00ffff;stop-opacity:0.9372549;" />
      <stop
         id="stop3934"
         offset="0.43963411"
         style="stop-color:#00ffff;stop-opacity:0.8745098;" />
      <stop
         id="stop3932"
         offset="0.56463414"
         style="stop-color:#00ffff;stop-opacity:0.74901961;" />
      <stop
         id="stop3930"
         offset="0.81463414"
         style="stop-color:#00ffff;stop-opacity:0.49803922;" />
      <stop
         style="stop-color:#00ffff;stop-opacity:0;"
         offset="1"
         id="stop3926" />
    </linearGradient>
    <linearGradient
       id="linearGradient3902">
      <stop
         style="stop-color:#ff0000;stop-opacity:1;"
         offset="0"
         id="stop3904" />
      <stop
         id="stop3918"
         offset="0.10735638"
         style="stop-color:#ffff00;stop-opacity:1;" />
      <stop
         id="stop3916"
         offset="0.29243404"
         style="stop-color:#0000ff;stop-opacity:1;" />
      <stop
         id="stop3914"
         offset="0.5"
         style="stop-color:#ff00ff;stop-opacity:1;" />
      <stop
         id="stop3912"
         offset="0.5"
         style="stop-color:#00ffff;stop-opacity:0.74901961;" />
      <stop
         id="stop3910"
         offset="0.65052152"
         style="stop-color:#00ffff;stop-opacity:0.49803922;" />
      <stop
         style="stop-color:#00ffff;stop-opacity:0;"
         offset="1"
         id="stop3906" />
    </linearGradient>
    <linearGradient
       id="linearGradient3876">
      <stop
         style="stop-color:#ff0000;stop-opacity:1;"
         offset="0"
         id="stop3878" />
      <stop
         id="stop3898"
         offset="0.47999999"
         style="stop-color:#ffa500;stop-opacity:1;" />
      <stop
         id="stop3888"
         offset="0.47999999"
         style="stop-color:#ffff00;stop-opacity:1;" />
      <stop
         style="stop-color:#ffff00;stop-opacity:1;"
         offset="0.75"
         id="stop3890" />
      <stop
         id="stop3892"
         offset="0.875"
         style="stop-color:#00ff00;stop-opacity:1;" />
      <stop
         style="stop-color:#4b0082;stop-opacity:1;"
         offset="1"
         id="stop3896" />
      <stop
         style="stop-color:#0000ff;stop-opacity:1;"
         offset="1"
         id="stop3880" />
    </linearGradient>
    <linearGradient
       inkscape:collect="always"
       xlink:href="#linearGradient3902"
       id="linearGradient3908"
       x1="12.20339"
       y1="8.4406776"
       x2="54.721668"
       y2="8.4406776"
       gradientUnits="userSpaceOnUse" />
    <linearGradient
       inkscape:collect="always"
       xlink:href="#linearGradient3922"
       id="linearGradient3928"
       x1="13.118644"
       y1="11.847458"
       x2="33.966103"
       y2="11.847458"
       gradientUnits="userSpaceOnUse" />
    <linearGradient
       inkscape:collect="always"
       xlink:href="#linearGradient3818"
       id="linearGradient3824"
       x1="48.135506"
       y1="12.34375"
       x2="123.41676"
       y2="12.34375"
       gradientUnits="userSpaceOnUse"
       gradientTransform="translate(-2.0000016,0.3125)" />
    <linearGradient
       inkscape:collect="always"
       xlink:href="#linearGradient3818"
       id="linearGradient3098"
       gradientUnits="userSpaceOnUse"
       gradientTransform="translate(-2.0000016,0.3125)"
       x1="48.135506"
       y1="12.34375"
       x2="123.41676"
       y2="12.34375" />
    <linearGradient
       inkscape:collect="always"
       xlink:href="#linearGradient3818"
       id="linearGradient3058"
       gradientUnits="userSpaceOnUse"
       gradientTransform="translate(-1.7083786,0.15625)"
       x1="48.135506"
       y1="12.34375"
       x2="123.41676"
       y2="12.34375" />
  </defs>
  <g
     id="brush02"
     style="display:inline"
     transform="translate(-1.5461659,-14.221457)">
    <path
       d="m 31.49,32.85 c 0,0 3.82,1.87 5.14,2.49 1.32,0.62 3.58,1.87 4.01,1.99 0.43,0.11 0.82,0.08 0.82,0.08 l 0.35,-0.71 c 0,0 0.19,-0.11 0.31,-0.31 0.12,-0.19 0.7,-1.44 0.9,-1.67 0.19,-0.23 0.15,-0.55 0.15,-0.55 l 0.23,-0.15 0.55,-1.05 0.12,-0.16 -0.12,-0.23 0.43,-0.39 -0.04,-0.12 c 0,0 0.27,-0.54 0.66,-1.21 0.39,-0.66 1.21,-1.98 1.21,-1.98 0,0 -0.16,-0.16 0,-0.35 0.15,-0.2 -0.04,-1.4 -0.74,-1.71 -0.7,-0.32 -3.97,-1.17 -5.34,-1.64 -1.36,-0.47 -4.67,-1.71 -4.67,-1.71 l -6.19,4.32 0.66,3.27 1.56,1.79 z"
       id="p3582"
       style="fill:#baa789;fill-opacity:1;fill-rule:evenodd;stroke:none"
       inkscape:connector-curvature="0" />
    <path
       d="m 30.84,30.25 c -0.02,0.02 -0.14,0.95 -0.22,1.59 l 0.88,1 c 0,0 3.8,1.88 5.12,2.5 1.32,0.62 3.6,1.88 4.03,2 0.43,0.12 0.81,0.06 0.81,0.06 l 0.35,-0.69 c 0,0 0.19,-0.11 0.31,-0.31 0.04,-0.06 0.14,-0.34 0.25,-0.56 -0.45,-0.3 -0.94,-0.63 -1.09,-0.63 -0.31,0 -6.06,-2.7 -10.44,-4.96 z"
       id="p3589"
       style="fill:#5b503f;fill-opacity:0.45;fill-rule:evenodd;stroke:none;display:inline"
       inkscape:connector-curvature="0" />
    <path
       d="M 45.75,27.03 C 45.66,27.72 45.5,27.9 45.5,27.9 l -0.07,0.81 -0.53,0.38 c 0,0 0.21,0.46 -0.09,0.84 -0.3,0.38 -0.83,0.76 -1.13,1.44 -0.3,0.68 -0.67,0.61 -0.75,1.06 -0.07,0.46 0.09,0.74 -0.22,0.97 -0.3,0.23 -0.63,0.75 -0.78,1.13 -0.15,0.37 -0.22,1 -0.22,1 l -0.15,0.53 -0.1,1.34 0.35,-0.69 c 0,0 0.19,-0.11 0.31,-0.31 0.12,-0.19 0.71,-1.45 0.91,-1.69 0.19,-0.23 0.15,-0.53 0.15,-0.53 l 0.22,-0.15 0.56,-1.07 0.1,-0.15 -0.1,-0.22 0.41,-0.41 -0.03,-0.12 c 0,0 0.27,-0.53 0.66,-1.19 0.38,-0.66 1.21,-2 1.21,-2 0,0 -0.15,-0.15 0,-0.34 0.14,-0.17 0,-1.05 -0.46,-1.5 z"
       id="p3591"
       style="fill:#664d25;fill-opacity:0.68000034;fill-rule:evenodd;stroke:none;display:inline"
       inkscape:connector-curvature="0" />
    <path
       d="m 35.56,23.5 c 0.73,0.58 1.66,0.89 2.31,1.58 -0.56,0.22 -1.17,-0.47 -1.75,-0.62 -0.43,-0.24 -1.47,-0.87 -1.65,-0.18 1.91,0.62 3.8,1.35 5.63,2.16 0.74,0.34 1.47,0.7 2.18,1.09 -2.62,-1.18 -5.33,-2.14 -7.97,-3.25 -0.34,0.11 -0.7,0.55 -0.1,0.54 2.91,1.13 5.87,2.21 8.54,3.86 -3.23,-0.82 -6.09,-2.54 -9.07,-3.97 -0.39,0.51 0.86,0.67 1.12,1.03 2.94,1.66 6.32,2.29 9.28,3.9 0.49,0.18 1.39,0.8 0.51,1.13 -0.91,-0.06 -1.5,-0.87 -2.25,-1.31 -1.2,-0.82 -2.56,-1.39 -3.87,-2 -1.68,-0.72 -3.4,-1.37 -5.19,-1.75 -0.43,-0.07 -0.67,0.43 -0.09,0.37 3.2,0.98 6.63,1.75 9.24,3.98 -1.04,0.81 -2.49,0.4 -3.55,-0.17 -1.35,-0.72 -2.76,-1.31 -4.03,-2.17 -0.76,-0.48 -1.51,-0.99 -2.26,-1.51 -0.07,1.07 1.18,1.34 1.89,1.8 2.68,1.49 5.57,2.54 8.47,3.5 0.43,0.41 -0.77,0.09 -1.01,0.1 -2.68,-0.37 -4.98,-1.88 -7.41,-2.95 -0.9,-0.28 -1.65,-1.06 -2.62,-1.05 -0.89,0.18 -0.25,0.94 0.34,1 0.91,0.41 1.85,0.79 2.67,1.36 -0.54,0.28 -1.21,-0.32 -1.78,-0.47 -0.76,-0.33 -1.58,-0.83 -2.44,-0.66 -0.55,0.54 0.82,0.95 1.16,1.27 1.53,0.82 3.2,1.36 4.66,2.3 1.05,0.56 2.29,1 2.94,2.06 0.3,0.49 -0.19,0.93 -0.61,0.47 -2.53,-1.05 -4.64,-3.06 -7.39,-3.6 0.88,1.4 2.59,1.77 3.98,2.44 1.28,0.68 2.57,1.32 3.85,1.97 0.79,0.42 1.57,0.85 2.33,1.31 0.61,-0.79 -1.07,-0.97 -0.87,-1.84 0,-0.95 1.24,-1.08 1.79,-0.49 0.59,0.46 0.79,-0.68 0.04,-0.53 -1.02,-0.13 -1.99,-0.56 -2.95,-0.92 -2.19,-0.91 -4.21,-2.16 -6.29,-3.28 3.1,1.05 6.48,1.61 9.13,3.66 0.21,0.31 1.11,0.85 0.83,0.12 -0.48,-0.39 -1.2,-1.34 -0.35,-1.74 0.64,-0.09 1.54,0.46 1.67,-0.52 0.45,-0.75 0.85,-1.53 1.37,-2.24 0.36,-0.69 0.41,-1.69 -0.47,-2.04 -0.71,-0.34 -1.34,-1.09 -2.2,-1 0.18,1.05 -1.24,0.83 -1.78,0.42 C 39.93,25.9 38.4,25 36.93,24 36.48,23.82 36.02,23.66 35.56,23.5 z m -2.97,2.71 c 0.5,-0.49 -1.07,-0.52 -0.2,-0.13 0.07,0.04 0.13,0.09 0.2,0.13 z m 4.84,-0.4 c 0.39,0.09 1.04,0.18 1.16,0.6 -0.41,-0.15 -0.77,-0.41 -1.16,-0.6 z m 5.91,1.81 c 0.41,-0.25 1.65,0.47 0.98,0.65 -0.38,-0.13 -0.67,-0.41 -0.98,-0.65 z m -11.56,0.22 c 1.7,0.88 3.63,1.28 5.24,2.35 -0.11,0.31 -1.13,-0.21 -1.51,-0.3 C 34.18,29.36 33,28.55 31.78,27.84 z m 12.03,0.47 c 0.66,-0.24 1.39,1.35 0.39,0.74 -0.2,-0.13 -1.27,-0.78 -0.39,-0.74 z m -4.78,3.03 c 0.36,0.02 1.25,0.37 0.98,0.69 -0.37,-0.09 -1.33,-0.47 -1.13,-0.7 l 0.15,0.01 z m -8.57,0.31 c 3.1,2.5 6.91,3.79 10.35,5.72 0.56,0.18 0.75,-0.11 0.14,-0.26 -3.5,-1.8 -7.06,-3.51 -10.49,-5.46 z m 3.04,0.81 c 1.26,0.56 2.52,1.13 3.69,1.88 -1.27,-0.53 -2.46,-1.26 -3.69,-1.88 z m 4.9,0.57 c 0.28,0.06 1.29,0.48 1.02,0.45 -0.34,-0.14 -0.68,-0.3 -1.02,-0.45 z"
       id="p3601"
       style="fill:#664d25;fill-opacity:0.12000002;fill-rule:evenodd;stroke:none"
       inkscape:connector-curvature="0" />
    <path
       d="m 34.12,24.4 c -0.78,0.25 -0.05,0.69 0.41,0.59 2.51,0.47 5,1.13 7.55,1.31 1.39,0 2.66,0.75 3.56,1.76 0.29,0.45 0.89,0.11 0.37,-0.27 C 45.5,27.2 44.91,26.55 44.11,26.38 43.32,26.17 42.53,25.9 41.75,25.69 40.88,25.6 40,25.57 39.17,25.31 37.48,25.03 35.8,24.73 34.12,24.4 z m -0.78,0.66 c -0.93,0.33 -0.01,1.34 0.5,1.61 1.89,1.32 4.23,1.64 6.28,2.61 1.56,0.64 3.08,1.39 4.47,2.34 0.4,-0.98 -1.08,-1.03 -1.59,-1.52 -2.57,-1.48 -5.42,-2.32 -8.19,-3.31 -0.47,-0.21 -0.26,-0.8 0.19,-0.4 3.47,1.48 7.23,2.05 10.84,3.11 0.25,-1.01 -1.34,-0.64 -1.9,-1.04 -3.19,-0.81 -6.46,-1.43 -9.48,-2.81 -0.12,-0.47 -0.69,-0.63 -1.12,-0.59 z m -2.81,1.84 c -0.99,0.27 -0.12,1.2 0.45,1.37 1.16,0.84 2.48,1.49 3.9,1.73 2.77,0.72 5.19,2.32 7.65,3.73 0.26,0.41 1.21,0.41 0.78,-0.18 -2.32,-1.33 -4.66,-2.65 -7.13,-3.66 -1.38,-0.46 -2.84,-0.72 -4.12,-1.43 0.41,-0.89 1.43,0.24 2.12,0.22 3.34,1.07 6.59,2.44 9.78,3.91 C 44.71,31.8 43.05,31.7 42.58,31.4 38.9,29.79 35.12,28.38 31.25,27.28 31.11,27.02 30.8,26.9 30.53,26.9 z m -0.5,1.16 c -0.7,0.57 0.35,1.11 0.74,1.49 1.07,1.51 2.8,2.31 4.43,3.07 2.35,1.17 4.8,2.13 7.05,3.5 0.44,-0.96 -1.1,-0.96 -1.58,-1.46 -2.21,-1.19 -4.56,-2.11 -6.74,-3.35 2.88,1.42 6.05,2.21 8.78,3.94 0.43,-0.77 -0.65,-1 -1.17,-1.19 -0.53,-0.32 -1.8,-0.72 -1.97,-0.82 1.18,0.43 2.34,0.92 3.49,1.41 0.31,-0.97 -1.14,-0.88 -1.67,-1.31 -3.37,-1.38 -6.96,-2.3 -10.09,-4.22 -0.43,-0.34 -0.7,-0.91 -1.27,-1.06 z"
       id="p3627"
       style="fill:#f2dab3;fill-opacity:0.15;fill-rule:evenodd;stroke:none"
       inkscape:connector-curvature="0" />
    <path
       d="m 31.49,32.85 c 0,0 3.82,1.87 5.14,2.49 1.32,0.62 3.58,1.87 4.01,1.99 0.43,0.11 0.82,0.08 0.82,0.08 l 0.35,-0.71 c 0,0 0.19,-0.11 0.31,-0.31 0.12,-0.19 0.7,-1.44 0.9,-1.67 0.19,-0.23 0.15,-0.55 0.15,-0.55 l 0.23,-0.15 0.55,-1.05 0.12,-0.16 -0.12,-0.23 0.43,-0.39 -0.04,-0.12 c 0,0 0.27,-0.54 0.66,-1.21 0.39,-0.66 1.21,-1.98 1.21,-1.98 0,0 -0.16,-0.16 0,-0.35 0.15,-0.2 -0.04,-1.4 -0.74,-1.71 -0.7,-0.32 -3.97,-1.17 -5.34,-1.64 -1.36,-0.47 -4.67,-1.71 -4.67,-1.71 l -6.19,4.32 0.66,3.27 1.56,1.79 z"
       id="stroke02"
       style="fill:none;stroke:#2f2111;stroke-width:0.40000001;stroke-linecap:butt;stroke-linejoin:miter;stroke-miterlimit:4;stroke-opacity:1;stroke-dasharray:none;display:inline"
       inkscape:connector-curvature="0" />
    <path
       d="m 1.82,15.46 c -0.44,2.29 5.35,4.61 5.98,4.9 0.63,0.28 6.78,2.62 9.23,3.3 2.45,0.69 5.3,1.71 6.21,4.05 0.92,2.34 0.69,2.16 1.09,2.39 0.39,0.23 1.53,0.46 1.53,0.46 0,0 0.29,0.34 0.63,0.45 0.34,0.12 0.4,0.06 1.31,0.4 0.91,0.35 2.22,0.92 2.51,1.14 0.28,0.23 1.37,0.46 1.37,0.46 0,0 -0.63,-0.29 -0.17,-1.54 0.45,-1.25 0.45,-1.14 2.22,-3.93 1.76,-2.79 2.62,-3.82 2.62,-3.82 0,0 -0.29,0.06 -0.51,-0.17 -0.23,-0.23 -0.29,0.11 -1.09,-0.28 -0.79,-0.4 -3.3,-1.43 -3.3,-1.43 0,0 -0.23,-0.11 -0.51,-0.23 -0.29,-0.11 -1.03,-0.4 -1.37,-0.62 -0.34,-0.23 -0.74,-0.29 -1.83,0.11 -1.08,0.4 -3.07,1.48 -7.4,-0.57 C 16.01,18.48 10.29,15.29 5.64,14.66 3.23,14.33 2.03,14.34 1.82,15.46 z"
       id="p2567"
       style="fill:#e5b98a;fill-opacity:1;fill-rule:evenodd;stroke:none"
       inkscape:connector-curvature="0" />
    <path
       d="m 17.31,19.06 c 0.89,1.41 1.92,2.86 2.72,3.5 1.36,1.09 2.09,1.66 1.68,3.19 0.4,0.31 0.75,0.66 1.04,1.06 0.14,-0.72 0.11,-0.83 0.75,-1.85 0.4,-0.65 1.42,-2.03 2.43,-3.31 -1.22,0.21 -2.97,0.12 -5.59,-1.12 -0.95,-0.45 -1.98,-0.96 -3.03,-1.47 z"
       id="p3466"
       style="fill:#bc864c;fill-opacity:0.27000002;fill-rule:evenodd;stroke:none;display:inline"
       inkscape:connector-curvature="0" />
    <path
       d="m 11.84,16.53 c 1.33,0.74 2.42,1.81 3.67,2.66 -1.25,-0.58 -2.38,-1.43 -3.73,-1.76 0.33,1.31 -1.37,1.77 -2.28,1.37 -0.66,0.27 -1.3,1.47 -0.45,1.87 -0.63,-1.32 1.35,-1.89 2.22,-1.19 1.58,0.57 3.25,1.12 4.58,2.2 1.16,1.07 2.37,2.09 3.77,2.84 1.48,0.85 2.96,1.71 4.38,2.65 0.81,0.38 1.54,1.38 2.53,1.02 0.93,-0.61 1.93,0.14 2.83,0.39 1.32,0.49 2.4,-1.44 1.44,-2.39 -1.53,-1.59 -3.64,-2.45 -5.19,-4.02 -0.36,-0.44 -1.19,0.09 -0.42,0.29 1.77,1.29 3.55,2.57 5.19,4.02 -0.88,0.65 -1.86,-0.24 -2.4,-0.93 -1.49,-1.61 -3.27,-2.91 -5.06,-4.17 -0.26,1.08 1.51,1.17 1.95,2.01 0.46,0.39 1.52,1.2 1.61,1.38 -2.11,-1.33 -4.05,-2.9 -6.11,-4.31 -0.85,0.15 0.66,0.86 0.89,1.12 2.7,2.03 5.53,3.88 8.24,5.92 -0.98,0.69 -2.18,0 -3,-0.62 -2.19,-1.55 -4.28,-3.22 -6.48,-4.75 -0.66,-0.24 -0.29,-1.46 -1.29,-1.37 -2.44,-1.18 -4.29,-3.34 -6.89,-4.23 z m 5.59,6.56 c -0.26,-1.2 -1.61,0.62 -0.37,0.55 0.68,0.39 1.13,0.14 0.37,-0.55 z m -1.5,-0.41 c -0.74,0.61 1.3,0.78 0.26,0.21 l -0.13,-0.1 -0.13,-0.11 z m -4.31,-4.87 c 1.9,0.55 3.57,1.65 5.31,2.56 -0.4,1.19 1.1,1.6 1.9,2 2.76,1.43 5.36,3.22 7.48,5.49 -1.62,-0.52 -2.99,-1.58 -4.43,-2.45 -1.08,-0.72 -2.15,-1.45 -3.26,-2.13 0.31,-1.04 -0.93,-1.39 -1.67,-1.66 -1.98,-0.94 -3.84,-2.19 -5.33,-3.81 z m 16.5,3.15 c -0.21,0.82 2.05,1.24 0.8,1.83 -1.05,-0.09 -1.81,-1.15 -2.89,-1.05 -0.1,0.53 1.18,0.84 1.76,0.98 0.88,0 1.43,1.04 2.3,0.78 1.2,-0.62 0.39,-1.97 -0.71,-1.97 -0.44,-0.14 -0.9,-0.26 -1.26,-0.57 z m -5.59,5.6 c 0.71,1.3 1.94,2.19 2.85,3.34 -0.37,-0.43 -1.77,-1.38 -1.35,-0.12 0.37,1 2.58,0.6 1.54,-0.49 -0.86,-1.07 -2.08,-1.77 -3.04,-2.73 z"
       id="p3420"
       style="fill:#a8772b;fill-opacity:0.15;fill-rule:evenodd;stroke:none"
       inkscape:connector-curvature="0" />
    <path
       d="m 1.84,15.4 c -0.01,0.02 -0.03,0.04 -0.03,0.06 -0.44,2.3 5.37,4.63 6,4.91 0.62,0.28 6.77,2.6 9.22,3.28 2.45,0.69 5.3,1.73 6.22,4.06 0.91,2.34 0.69,2.15 1.09,2.38 0.4,0.23 1.53,0.47 1.53,0.47 0,0 0.28,0.35 0.63,0.47 0.08,0.02 0.15,0.01 0.21,0.03 l 1.13,-2.35 c 0,0 -2.77,-1.18 -2.84,-1.34 C 24.92,27.21 22.67,24.39 21.96,24 21.26,23.6 15.3,20.62 13.96,20.15 12.63,19.68 8.62,17.73 7.68,17.34 6.74,16.95 6.34,17.42 5.56,17.18 4.77,16.95 4.31,15.84 4,15.68 3.75,15.56 2.95,15.45 1.84,15.4 z"
       id="p3359"
       style="fill:#f8f6f0;fill-opacity:0.23000004;fill-rule:evenodd;stroke:none;display:inline"
       inkscape:connector-curvature="0" />
    <path
       d="m 1.81,15.62 c -0.16,2.24 5.38,4.47 6,4.75 0.62,0.28 6.77,2.6 9.22,3.28 2.45,0.69 5.3,1.73 6.22,4.06 0.91,2.34 0.69,2.15 1.09,2.38 0.23,0.13 0.64,0.25 1,0.34 C 25.39,29.53 25.32,28.76 25,28.62 24.05,28.23 24.29,27.54 23.9,26.68 23.51,25.82 21,23.91 18.37,23.01 16.1,22.23 8.56,19.17 7.23,18.55 6.12,18.03 3.95,17.2 1.81,15.62 z"
       id="p3356"
       style="fill:#3e2803;fill-opacity:0.37000002;fill-rule:evenodd;stroke:none;display:inline"
       inkscape:connector-curvature="0" />
    <path
       d="m 3.43,14.46 c -0.95,0.02 -1.49,0.31 -1.62,1 -0.44,2.3 5.37,4.63 6,4.91 0.17,0.08 1.37,0.52 2.22,0.84 0.08,-1.17 0.28,-2.01 0.84,-2.62 0.61,-0.67 1.18,-1.36 1.75,-1.75 C 10.23,15.8 7.83,14.95 5.65,14.65 4.75,14.53 4.01,14.45 3.43,14.46 z"
       id="p3342"
       style="fill:#003856;fill-opacity:1;fill-rule:evenodd;stroke:none"
       inkscape:connector-curvature="0" />
    <path
       d="m 1.84,15.4 c -0.01,0.02 -0.03,0.04 -0.03,0.06 -0.44,2.3 5.37,4.63 6,4.91 0.17,0.08 1.37,0.52 2.22,0.84 0.07,-1.07 0.25,-1.87 0.72,-2.46 C 9.44,18.14 8.16,17.54 7.68,17.34 6.74,16.95 6.34,17.42 5.56,17.18 4.77,16.95 4.31,15.84 4,15.68 3.75,15.56 2.95,15.45 1.84,15.4 z"
       id="p3369"
       style="fill:#a4b1d4;fill-opacity:0.3;fill-rule:evenodd;stroke:none;display:inline"
       inkscape:connector-curvature="0" />
    <path
       d="m 1.81,15.62 c -0.04,0.68 0.39,1.27 0.85,1.73 0.5,0.49 1.09,0.9 1.68,1.29 1.25,0.73 2.55,1.36 3.89,1.9 0.6,0.22 1.2,0.45 1.8,0.67 0.03,-0.47 0.09,-0.94 0.22,-1.4 C 9.29,19.4 8.38,19.21 7.31,18.81 6.24,18.42 5.06,17.97 4,17.31 3.25,16.84 2.52,16.15 1.81,15.62 z"
       id="p3374"
       style="fill:#000b28;fill-opacity:0.5;fill-rule:evenodd;stroke:none;display:inline"
       inkscape:connector-curvature="0" />
    <path
       d="M 7.46,16.02 C 7.38,16.58 6.69,17.04 5.93,17.04 5.17,17.04 4.63,16.58 4.71,16.02 4.8,15.45 5.47,15 6.23,15 c 0.76,0 1.32,0.45 1.23,1.02 z"
       id="p3472"
       style="fill:#59c3dc;fill-opacity:0.3;fill-rule:evenodd;stroke:none;marker:none;visibility:visible;display:inline;overflow:visible;enable-background:accumulate"
       inkscape:connector-curvature="0" />
    <path
       d="m 6.87,15.31 c 0,0 -0.85,0.85 -0.66,1.25 0.2,0.39 -0.62,0.63 -0.71,-0.16 -0.08,-0.62 -0.23,-0.87 -0.41,-0.97 -0.2,0.17 -0.37,0.37 -0.41,0.6 -0.08,0.56 0.49,1 1.25,1 0.76,0 1.42,-0.44 1.5,-1 0.01,-0.07 0.04,-0.16 0.03,-0.22 -0.17,-0.39 -0.59,-0.5 -0.59,-0.5 z"
       id="p3482"
       style="fill:#021d2b;fill-opacity:0.47999998;fill-rule:evenodd;stroke:none;display:inline"
       inkscape:connector-curvature="0" />
    <path
       d="M 6.4,15.4 C 6.22,15.38 6.03,15.39 5.84,15.43 5.27,15.56 4.86,15.96 4.75,16.4 c 0.15,0.37 0.61,0.63 1.18,0.63 0.73,0 1.37,-0.41 1.5,-0.94 C 7.28,15.71 6.88,15.45 6.4,15.4 z"
       id="p3491"
       style="fill:#021d2b;fill-opacity:0.47999998;fill-rule:evenodd;stroke:none;marker:none;visibility:visible;display:inline;overflow:visible;enable-background:accumulate"
       inkscape:connector-curvature="0" />
    <path
       d="m 7.04,16.31 c -0.06,0.37 -0.51,0.67 -1.01,0.67 -0.51,0 -0.87,-0.3 -0.81,-0.67 0.06,-0.37 0.51,-0.68 1.01,-0.68 0.5,0 0.86,0.31 0.81,0.68 l 0,0 z"
       id="p3474"
       style="fill:#000000;fill-opacity:0.93000034;fill-rule:evenodd;stroke:none;marker:none;visibility:visible;display:inline;overflow:visible;enable-background:accumulate"
       inkscape:connector-curvature="0" />
    <path
       d="m 8.84,15.56 c -0.37,0.03 -0.52,0.12 -0.69,0.34 -0.34,0.45 -0.7,0.89 -0.4,0.94 0.23,0.04 2.38,0.99 3.34,1.5 0.52,-0.58 1.03,-1.16 1.53,-1.5 -1.11,-0.48 -2.22,-0.92 -3.31,-1.28 -0.12,0 -0.38,-0.01 -0.47,0 z"
       id="p3498"
       style="fill:#1ea0d3;fill-opacity:0.07000002;fill-rule:evenodd;stroke:none"
       inkscape:connector-curvature="0" />
    <path
       d="m 1.81,15.5 c -0.02,0.09 -0.01,0.18 0,0.28 1.11,1.17 2.56,2.26 2.97,2.47 0.45,0.22 4.33,1.7 5.37,2.09 0.05,-0.32 0.12,-0.62 0.22,-0.88 C 9.84,19.39 8.89,19.19 7.28,18.59 5.34,17.87 2.86,16.61 1.81,15.5 z"
       id="p3503"
       style="fill:#012a3b;fill-opacity:0.56000001;fill-rule:evenodd;stroke:none;display:inline"
       inkscape:connector-curvature="0" />
    <path
       d="m 29.93,21.18 c -1.35,1.94 -3.87,5.52 -4.5,6.44 -0.56,0.83 -0.7,1.69 -0.53,2.69 0.46,0.13 0.97,0.25 0.97,0.25 0,0 0.28,0.35 0.63,0.47 0.34,0.11 0.4,0.03 1.31,0.37 0.91,0.34 2.21,0.93 2.5,1.16 0.28,0.23 1.37,0.44 1.37,0.44 0,0 -0.64,-0.28 -0.18,-1.54 0.45,-1.25 0.45,-1.14 2.21,-3.93 1.77,-2.8 2.63,-3.82 2.63,-3.82 0,0 -0.27,0.08 -0.5,-0.15 -0.23,-0.23 -0.3,0.12 -1.09,-0.28 -0.8,-0.4 -3.29,-1.44 -3.29,-1.44 0,0 -0.24,-0.11 -0.53,-0.22 -0.21,-0.08 -0.63,-0.26 -1,-0.44 z"
       id="p3344"
       style="fill:#898584;fill-opacity:1;fill-rule:evenodd;stroke:none"
       inkscape:connector-curvature="0" />
    <path
       d="m 31.21,21.84 c -1.35,1.93 -3.77,5.39 -4.39,6.31 -0.57,0.83 -0.67,1.6 -0.49,2.6"
       id="p3509"
       style="fill:none;stroke:#1a1b1b;stroke-width:0.69;stroke-linecap:round;stroke-linejoin:miter;stroke-miterlimit:4;stroke-opacity:0.81000001;stroke-dasharray:none;display:inline"
       inkscape:connector-curvature="0" />
    <path
       d="m 30.8,32.68 c 0,0 -0.45,-0.34 -0.12,-1.38 0.4,-1.27 0.45,-1.15 2.22,-3.94 1.77,-2.79 2.58,-3.73 2.58,-3.73"
       id="p3515"
       style="fill:none;stroke:#1a1b1b;stroke-width:0.69;stroke-linecap:round;stroke-linejoin:miter;stroke-miterlimit:4;stroke-opacity:0.81000001;stroke-dasharray:none;display:inline"
       inkscape:connector-curvature="0" />
    <path
       d="m 26.21,26.5 c -0.14,0.2 -0.43,0.63 -0.53,0.78 0.83,0.47 1.42,0.71 1.94,0.84 0.68,0.17 2.59,1.46 2.84,1.5 0.25,0.04 1.48,0.49 1.6,0.53 0.06,-0.12 0.28,-0.41 0.37,-0.56 l 0.13,-0.28 c 0,0 -1.36,0.17 -2.38,-0.47 -1.02,-0.64 -2.52,-1.53 -2.9,-1.66 -0.2,-0.06 -0.64,-0.37 -1.07,-0.68 z"
       id="p3555"
       style="fill:#454548;fill-opacity:0.22000002;fill-rule:evenodd;stroke:none;display:inline"
       inkscape:connector-curvature="0" />
    <path
       d="m 29.33,31.93 c 0,0 -0.4,-0.34 -0.03,-1.36 0.45,-1.25 0.45,-1.15 2.22,-3.94 1.76,-2.79 2.41,-3.55 2.41,-3.55"
       id="p3517"
       style="fill:none;stroke:#1a1b1b;stroke-width:0.69;stroke-linecap:round;stroke-linejoin:miter;stroke-miterlimit:4;stroke-opacity:0.81000001;stroke-dasharray:none;display:inline"
       inkscape:connector-curvature="0" />
    <path
       d="m 31.21,21.84 c -1.35,1.93 -3.77,5.39 -4.39,6.31 -0.57,0.83 -0.67,1.6 -0.49,2.6"
       id="p3525"
       style="fill:none;stroke:#f4f5f5;stroke-width:0.30000001;stroke-linecap:round;stroke-linejoin:miter;stroke-miterlimit:4;stroke-opacity:0.68000034;stroke-dasharray:none;display:inline"
       inkscape:connector-curvature="0" />
    <path
       d="m 30.8,32.68 c 0,0 -0.45,-0.34 -0.12,-1.38 0.4,-1.27 0.45,-1.15 2.22,-3.94 1.77,-2.79 2.58,-3.73 2.58,-3.73"
       id="p3527"
       style="fill:none;stroke:#f4f5f5;stroke-width:0.30000001;stroke-linecap:round;stroke-linejoin:miter;stroke-miterlimit:4;stroke-opacity:0.68000034;stroke-dasharray:none;display:inline"
       inkscape:connector-curvature="0" />
    <path
       d="m 29.33,31.93 c 0,0 -0.4,-0.34 -0.03,-1.36 0.45,-1.25 0.45,-1.15 2.22,-3.94 1.76,-2.79 2.41,-3.55 2.41,-3.55"
       id="p3529"
       style="fill:none;stroke:#f4f5f5;stroke-width:0.30000001;stroke-linecap:round;stroke-linejoin:miter;stroke-miterlimit:4;stroke-opacity:0.68000034;stroke-dasharray:none;display:inline"
       inkscape:connector-curvature="0" />
    <path
       d="m 25.34,27.78 c -0.19,0.31 -0.29,0.64 -0.38,0.97 0.45,-0.19 0.94,-0.25 1.25,-0.25 0.13,0 0.21,-0.02 0.25,0 0.18,0.04 0.25,0.66 0.6,0.75 0.34,0.08 2.22,0.84 2.22,0.84 0,0 0.24,-0.51 0.37,-0.38 0.13,0.13 -0.12,0.3 0.22,0.47 0.34,0.17 0.92,0.1 1.22,0.32 0.16,0.11 0.39,0.36 0.56,0.59 0.05,-0.14 0.1,-0.32 0.16,-0.44 -0.33,-0.22 -0.34,-0.49 -0.47,-0.59 -0.17,-0.13 -0.36,0.18 -0.66,0.09 -0.3,-0.08 -0.62,-0.14 -0.62,-0.31 0,-0.17 -0.03,-0.31 -0.28,-0.22 -0.26,0.09 -0.29,-0.13 -0.5,-0.22 -0.22,-0.08 -0.95,-0.56 -1.38,-0.69 -0.43,-0.13 -1.13,-0.3 -1.34,-0.34 -0.22,-0.04 -0.31,-0.21 -0.66,-0.34 -0.19,-0.08 -0.35,-0.14 -0.56,-0.25 z m -0.38,0.97 c -0.05,0.22 -0.11,0.44 -0.12,0.68 0.01,-0.23 0.07,-0.46 0.12,-0.68 z"
       id="p3531"
       style="fill:#f5f5f8;fill-opacity:0.86000001;fill-rule:evenodd;stroke:none;display:inline"
       inkscape:connector-curvature="0" />
    <path
       d="m 26.21,28.5 c -0.31,0 -0.8,0.06 -1.25,0.25 -0.12,0.49 -0.16,1 -0.06,1.56 0.46,0.13 0.97,0.25 0.97,0.25 0,0 0.28,0.35 0.63,0.47 0.34,0.11 0.4,0.03 1.31,0.37 0.91,0.34 2.21,0.93 2.5,1.16 0.28,0.23 1.37,0.44 1.37,0.44 0,0 -0.64,-0.28 -0.18,-1.54 0.05,-0.16 0.1,-0.25 0.15,-0.37 -0.17,-0.23 -0.4,-0.48 -0.56,-0.59 -0.3,-0.22 -0.88,-0.15 -1.22,-0.32 -0.34,-0.17 -0.09,-0.34 -0.22,-0.47 -0.13,-0.13 -0.37,0.38 -0.37,0.38 0,0 -1.88,-0.76 -2.22,-0.84 -0.35,-0.09 -0.42,-0.71 -0.6,-0.75 -0.04,-0.02 -0.12,0 -0.25,0 z"
       id="p3534"
       style="fill:#afafb2;fill-opacity:0.37000002;fill-rule:evenodd;stroke:none;display:inline"
       inkscape:connector-curvature="0" />
    <path
       d="m 26.59,28.62 c -0.08,0.04 -0.13,0.24 -0.16,0.5 -0.04,0.33 -0.27,0.12 -0.4,-0.09 l 0.15,0.43 2.91,1.19 0.31,0 0.19,0.19 1.81,0.97 c 0.03,-0.11 0.05,-0.22 0.1,-0.35 0.02,-0.06 0.04,-0.09 0.06,-0.15 -0.06,-0.03 -0.12,-0.07 -0.19,-0.1 -1.03,-0.34 -1.75,-0.62 -1.75,-0.62 l -0.41,0 -0.03,-0.31 c 0,0 -1.8,-0.61 -2.28,-0.78 -0.47,-0.18 -0.09,-0.79 -0.22,-0.88 -0.03,-0.02 -0.06,-0.01 -0.09,0 z m -0.56,0.41 c -0.01,-0.01 0,-0.03 0,-0.03 -0.1,-0.17 -0.59,-0.25 -1.07,-0.29 -0.01,0.06 -0.05,0.11 -0.06,0.16 l 1.06,0.5 0.07,-0.34 z"
       id="p3537"
       style="fill:#030304;fill-opacity:0.86000001;fill-rule:evenodd;stroke:none;display:inline"
       inkscape:connector-curvature="0" />
    <path
       d="m 27.49,28.14 c 0.57,-0.29 1.73,-0.11 2.48,-0.81 0.76,-0.69 2.47,-3.06 2.47,-3.06 l -3.06,4.75 c 0,0 -0.79,-0.59 -1.89,-0.88 z"
       id="p3552"
       style="fill:#454548;fill-opacity:0.35;fill-rule:evenodd;stroke:none;display:inline"
       inkscape:connector-curvature="0" />
    <path
       d="m 27.72,25.83 c 0.01,0.26 -0.23,0.48 -0.52,0.48 -0.3,0 -0.54,-0.22 -0.55,-0.48 -0.01,-0.27 0.22,-0.48 0.51,-0.48 0.3,0 0.55,0.21 0.56,0.48 z"
       id="p3566"
       style="fill:#fafafa;fill-opacity:0.86000001;fill-rule:evenodd;stroke:none;marker:none;visibility:visible;display:inline;overflow:visible;enable-background:accumulate"
       inkscape:connector-curvature="0" />
    <path
       d="m 27.42,25.97 c 0.01,0.19 -0.17,0.35 -0.4,0.35 -0.23,0 -0.42,-0.16 -0.43,-0.35 -0.01,-0.2 0.17,-0.36 0.4,-0.36 0.23,0 0.42,0.16 0.43,0.36 z"
       id="p3568"
       style="fill:#353535;fill-opacity:0.86000001;fill-rule:evenodd;stroke:none;marker:none;visibility:visible;display:inline;overflow:visible;enable-background:accumulate"
       inkscape:connector-curvature="0" />
    <path
       d="m 27.28,25.84 c 0.01,0.12 -0.1,0.21 -0.24,0.21 -0.14,0 -0.26,-0.09 -0.26,-0.21 -0.01,-0.12 0.1,-0.21 0.24,-0.21 0.14,0 0.26,0.09 0.26,0.21 z"
       id="p3570"
       style="fill:#8f8f8f;fill-opacity:0.86000001;fill-rule:evenodd;stroke:none;marker:none;visibility:visible;display:inline;overflow:visible;enable-background:accumulate"
       inkscape:connector-curvature="0" />
    <path
       d="m 29.67,23.09 c 0.01,0.26 -0.23,0.48 -0.52,0.48 -0.3,0 -0.54,-0.22 -0.55,-0.48 -0.01,-0.27 0.22,-0.48 0.51,-0.48 0.3,0 0.55,0.21 0.56,0.48 z"
       id="p3575"
       style="fill:#fafafa;fill-opacity:0.86000001;fill-rule:evenodd;stroke:none;marker:none;visibility:visible;display:inline;overflow:visible;enable-background:accumulate"
       inkscape:connector-curvature="0" />
    <path
       d="m 29.38,23.22 c 0.01,0.19 -0.17,0.35 -0.4,0.35 -0.23,0 -0.42,-0.16 -0.43,-0.35 -0.01,-0.2 0.17,-0.36 0.4,-0.36 0.23,0 0.42,0.16 0.43,0.36 z"
       id="p3577"
       style="fill:#353535;fill-opacity:0.86000001;fill-rule:evenodd;stroke:none;marker:none;visibility:visible;display:inline;overflow:visible;enable-background:accumulate"
       inkscape:connector-curvature="0" />
    <path
       d="m 29.23,23.08 c 0.01,0.12 -0.1,0.21 -0.24,0.21 -0.14,0 -0.26,-0.09 -0.26,-0.21 -0.01,-0.12 0.1,-0.21 0.24,-0.21 0.14,0 0.26,0.09 0.26,0.21 z"
       id="p3579"
       style="fill:#8f8f8f;fill-opacity:0.86000001;fill-rule:evenodd;stroke:none;marker:none;visibility:visible;display:inline;overflow:visible;enable-background:accumulate"
       inkscape:connector-curvature="0" />
    <path
       d="m 1.82,15.46 c -0.44,2.29 5.35,4.61 5.98,4.9 0.63,0.28 6.78,2.62 9.23,3.3 2.45,0.69 5.3,1.71 6.21,4.05 0.92,2.34 0.69,2.16 1.09,2.39 0.39,0.23 1.53,0.46 1.53,0.46 0,0 0.29,0.34 0.63,0.45 0.34,0.12 0.4,0.06 1.31,0.4 0.91,0.35 2.22,0.92 2.51,1.14 0.28,0.23 1.37,0.46 1.37,0.46 0,0 -0.63,-0.29 -0.17,-1.54 0.45,-1.25 0.45,-1.14 2.22,-3.93 1.76,-2.79 2.62,-3.82 2.62,-3.82 0,0 -0.29,0.06 -0.51,-0.17 -0.23,-0.23 -0.29,0.11 -1.09,-0.28 -0.79,-0.4 -3.3,-1.43 -3.3,-1.43 0,0 -0.23,-0.11 -0.51,-0.23 -0.29,-0.11 -1.03,-0.4 -1.37,-0.62 -0.34,-0.23 -0.74,-0.29 -1.83,0.11 -1.08,0.4 -3.07,1.48 -7.4,-0.57 C 16.01,18.48 10.29,15.29 5.64,14.66 3.23,14.33 2.03,14.34 1.82,15.46 z"
       id="stroke01"
       style="fill:none;stroke:#1f2123;stroke-width:0.5;stroke-linecap:butt;stroke-linejoin:bevel;stroke-miterlimit:4;stroke-opacity:1;stroke-dasharray:none"
       inkscape:connector-curvature="0" />
  </g>
</svg>
